# xmcd CD database file
#
# Track frame offsets:
#	150
#	35713
#	55566
#	82918
#
# Disc length: 1369 seconds
#
# Revision: 0
# Processed by: cddbd v1.5PL3 Copyright (c) Steve Scherf et al.
# Submitted via: CDex 1.51
#
DISCID=25055704
DTITLE=Rachel Mother Goose - Fortune
DYEAR=2004
DGENRE=Heavy Metal
TTITLE0=Make Up Your Mind
TTITLE1=Petals
TTITLE2=Mother
TTITLE3=Hold Me And Escape To Day
EXTD=YEAR: 2004
EXTT0=
EXTT1=
EXTT2=
EXTT3=
PLAYORDER=
